<svg id="Layer_1" data-name="Layer 1" xmlns="http://www.w3.org/2000/svg" viewBox="0 0 527.51 559.62"><defs><style>.cls-1{fill:#fff;}.cls-2{fill:#694086;}.cls-3{fill:none;}</style></defs><path class="cls-1" d="M11,500.86,116.35,395.47a8.39,8.39,0,0,0,.56-.63,18.2,18.2,0,0,0,2-2.67,20.7,20.7,0,0,0-2.23-24.72l-1-1L73.44,324.3c-.21-.2-.45-.34-.67-.52l-.66-.53a7.78,7.78,0,0,0-.7-.47,20.57,20.57,0,0,0-12.64-3.42,25,25,0,0,0-13.26,4.72,22.17,22.17,0,0,0-8.11,10.75,20.94,20.94,0,0,0-1.1,6.59v1.31a2.85,2.85,0,0,0,0,.41,14.86,14.86,0,0,0,.18,1.62l.12.82c0,.27.13.55.19.82s.12.55.19.82l.26.81a23.28,23.28,0,0,0,3.07,6.25,23.89,23.89,0,0,0,4.77,5.05c.22.17.43.37.67.53l.7.47c.45.34.95.57,1.41.86a4.62,4.62,0,0,0,.73.38l.73.36c.23.13.56.24.84.36s.57.26.85.34a24.48,24.48,0,0,0,3.29,1,19.65,19.65,0,0,0,3.07.35,16.6,16.6,0,0,0,3-.21,17,17,0,0,0,3.08-.79,27.11,27.11,0,0,0,3.27-1.41,39.26,39.26,0,0,0,3.46-2.06c1.17-.77,2.36-1.66,3.57-2.61s2.41-2,3.63-3.08,2.45-2.23,3.69-3.44c0,0,110.43-110.22,111.35-111.06a55.17,55.17,0,0,1,6.09-4.48,52.48,52.48,0,0,1,13.89-6.24c1.23-.31,2.46-.64,3.7-.9s2.5-.43,3.75-.63,2.5-.25,3.75-.35,2.5-.07,3.75-.09a60.39,60.39,0,0,1,49.28,27,54.42,54.42,0,0,1,9.09,28.14,57.88,57.88,0,0,1-.17,7.45c-.15,1.25-.31,2.49-.47,3.73s-.49,2.48-.76,3.71a53.06,53.06,0,0,1-5.58,14.09,55.08,55.08,0,0,1-21.2,20.7A56.53,56.53,0,0,1,229,338.46a52.48,52.48,0,0,1-28.54-9.16c-.52-.36-1.06-.7-1.56-1.07L196,325.9c-.49-.4-.93-.84-1.39-1.25l-2-1.91-83.65-83.69c-.78-.83-1.58-1.65-2.31-2.53-1.52-1.72-2.94-3.53-4.29-5.38a73.69,73.69,0,0,1-11.66-24.82A74.19,74.19,0,0,1,114,131.46a73.65,73.65,0,0,1,23.67-13.82,74.48,74.48,0,0,1,66,8,73.62,73.62,0,0,1,10.7,8.63c.9.85,1.47,1.44,2.15,2.11l21.49,21.47a20.43,20.43,0,0,0,5.46,3.75,20.88,20.88,0,0,0,13,1.52,20.69,20.69,0,0,0,16.4-18.62,21.13,21.13,0,0,0-.54-6.63,20.42,20.42,0,0,0-1.05-3.15,18.58,18.58,0,0,0-1.55-2.92,19.67,19.67,0,0,0-2-2.66,8.22,8.22,0,0,0-.57-.61l-.29-.31s-20.45-20.58-20.87-21.08c-.87-1-1.66-2-2.45-3.06a50.36,50.36,0,0,1-4.1-6.69,48.95,48.95,0,0,1-2.57-38.08A49.52,49.52,0,0,1,240,52.15a47.45,47.45,0,0,1,4.28-6.57c.79-1,1.65-2,2.51-3l1.91-2,79.51-79.5L348-19.08,268.28,60.67c-.09.09-.11.12-.17.17l-.58.61c-.36.43-.74.84-1.06,1.29a20,20,0,0,0-1.82,2.77,22.64,22.64,0,0,0-1.33,3,20,20,0,0,0-.83,3.22,20.61,20.61,0,0,0,1.91,13,22.67,22.67,0,0,0,1.73,2.82c.35.44.67.89,1.05,1.3a8.15,8.15,0,0,0,.56.63l.43.45a1.71,1.71,0,0,0,.2.21s19.85,19.91,20.27,20.4a48.76,48.76,0,0,1,.1,64.6,49.63,49.63,0,0,1-5.61,5.43,51.39,51.39,0,0,1-6.44,4.48,48.29,48.29,0,0,1-14.61,5.58,48.59,48.59,0,0,1-43.5-12.41s-23.37-23.34-23.83-23.76a45.34,45.34,0,0,0-14.2-9.41,46.59,46.59,0,0,0-33.52-1,45.72,45.72,0,0,0-14.7,8.59,46.3,46.3,0,0,0-14.54,46.63A45.66,45.66,0,0,0,125,214.71c.85,1.14,1.73,2.28,2.68,3.35.45.55,1,1.06,1.45,1.58l.75.8,83.5,83.41c.23.2.44.43.68.62l1.43,1.13c.24.19.51.33.75.5a24.37,24.37,0,0,0,13.43,4.3A28.44,28.44,0,0,0,244,306.82a26.86,26.86,0,0,0,10.4-10.09,24.82,24.82,0,0,0,2.63-6.6c.11-.6.24-1.18.36-1.77s.14-1.21.23-1.81a28.72,28.72,0,0,0,.07-3.71,27.25,27.25,0,0,0-1.25-7.19,28,28,0,0,0-3.24-6.65,32,32,0,0,0-11.35-10.37,31.62,31.62,0,0,0-14.72-4c-.61,0-1.23,0-1.83,0s-1.21.12-1.81.16-1.18.22-1.77.3-1.15.3-1.72.43a24.47,24.47,0,0,0-6.41,2.88,30.91,30.91,0,0,0-2.91,2.13c-.44.43-.9.85-1.36,1.26l-.17.16-.23.22S97.66,373.31,96.1,374.7s-3.17,2.78-4.89,4.14-3.51,2.7-5.45,4a68.78,68.78,0,0,1-6.15,3.65,54.27,54.27,0,0,1-7,3A44.94,44.94,0,0,1,56.75,392a47.11,47.11,0,0,1-8-.91,52.4,52.4,0,0,1-7.43-2.14c-.61-.21-1.17-.46-1.75-.69s-1.13-.45-1.73-.74L36,386.65c-.6-.29-1.19-.58-1.75-.92-1.13-.66-2.29-1.29-3.34-2l-1.61-1.1c-.54-.37-1-.79-1.55-1.18a51.45,51.45,0,0,1-17.25-24.88L10,354.68c-.17-.63-.31-1.27-.46-1.9s-.31-1.26-.43-1.9l-.31-1.94A39.35,39.35,0,0,1,8.34,345c0-.33-.06-.66-.07-1l0-2.89A48.78,48.78,0,0,1,18.13,312a51.78,51.78,0,0,1,10.93-10.7,53.05,53.05,0,0,1,28.29-10A49.68,49.68,0,0,1,72.79,293a48.1,48.1,0,0,1,14.27,6.52c.54.37,1.11.71,1.61,1.11l1.54,1.2c.5.4,1,.79,1.51,1.22l2.83,2.61,42.93,43a48.8,48.8,0,0,1,12.35,28.28,49.36,49.36,0,0,1-1.1,15.56,48.8,48.8,0,0,1-6,14.45,46.42,46.42,0,0,1-4.65,6.31c-.42.5-.86,1-1.31,1.45L30.83,520.7Z" transform="translate(179.48 38.92)"/><path class="cls-2" d="M280.47,267.83a53.82,53.82,0,0,0-6.16-12.72,57.75,57.75,0,0,0-47-25.72c-1.18,0-2.36,0-3.55.09s-2.38.21-3.56.33-2.37.39-3.54.6-2.34.56-3.51.86A49.37,49.37,0,0,0,200,237.16a55.2,55.2,0,0,0-5.76,4.25l-3.2,3L172.46,263c.6.53,1.15,1.11,1.7,1.7l21.67-21.45a52.14,52.14,0,0,1,5.49-4.05,47.25,47.25,0,0,1,26-7.39,54.5,54.5,0,0,1,25.55,6.8,55.12,55.12,0,0,1,10.76,7.7,54,54,0,0,1,8.67,10.14,51,51,0,0,1,5.88,12.14,50.17,50.17,0,0,1,2.35,13.34,48.06,48.06,0,0,1-6.29,26.18,49.88,49.88,0,0,1-19.19,18.73,51.31,51.31,0,0,1-25.91,6.42A47.42,47.42,0,0,1,203.4,325c-.46-.32-1-.62-1.4-1l-2.67-2.1c-.44-.36-.84-.76-1.26-1.14l-1.86-1.72-83.56-83.61c-.73-.78-1.48-1.54-2.16-2.36-1.41-1.6-2.73-3.28-4-5A68.47,68.47,0,0,1,95.67,205a68.94,68.94,0,0,1,21.7-69.62,68.44,68.44,0,0,1,22-12.85A68.82,68.82,0,0,1,210.65,138c.82.77,1.42,1.39,2.09,2.06l21.59,21.56a25.77,25.77,0,0,0,6.84,4.69,26.06,26.06,0,0,0,16.28,1.9,25.94,25.94,0,0,0,19.87-31.6,26,26,0,0,0-1.32-3.94,23.76,23.76,0,0,0-1.93-3.67,25.46,25.46,0,0,0-2.51-3.33c-.22-.27-.48-.51-.71-.77l-.36-.38s-20.24-20.35-20.62-20.79c-.77-.88-1.47-1.81-2.18-2.74A43.5,43.5,0,0,1,240,67.82,45.29,45.29,0,0,1,241.73,61a44,44,0,0,1,2.83-6.4,40.8,40.8,0,0,1,3.83-5.87c.7-.94,1.47-1.81,2.24-2.69l81.24-81.32-1.7-1.7-81.32,81.4c-.81.93-1.63,1.85-2.37,2.84a44.39,44.39,0,0,0-4,6.19,47.52,47.52,0,0,0-3,6.77,46,46,0,0,0,2.42,35.89,48.36,48.36,0,0,0,3.87,6.3c.74,1,1.49,2,2.3,2.89.4.46.8.93,1.23,1.37l19.83,19.9c.22.24.45.45.65.7a23.5,23.5,0,0,1,2.27,3,21.2,21.2,0,0,1,1.76,3.33,23.52,23.52,0,0,1,1.2,3.58,23.78,23.78,0,0,1,.61,7.52A23.49,23.49,0,0,1,257,165.89a23.63,23.63,0,0,1-14.78-1.72,23.38,23.38,0,0,1-6.2-4.26l-.35-.32-.21-.21s-22.25-22.26-23.1-23.06a70.71,70.71,0,0,0-22-14.56,71.76,71.76,0,0,0-51.78-1.47,70.66,70.66,0,0,0-22.77,13.29,71.57,71.57,0,0,0-22.46,72,70.83,70.83,0,0,0,11.21,23.87c1.31,1.79,2.67,3.53,4.13,5.18.7.85,1.47,1.64,2.23,2.44l1.14,1.18,84.4,84.28c.44.39.86.81,1.32,1.18l2.8,2.21c.48.36,1,.68,1.48,1a49.8,49.8,0,0,0,27,8.67,53.81,53.81,0,0,0,27.13-6.71,52.26,52.26,0,0,0,20.11-19.65A50.21,50.21,0,0,0,281.61,296c.25-1.17.5-2.34.72-3.51l.44-3.54a54,54,0,0,0,.17-7.08A53.05,53.05,0,0,0,280.47,267.83Z" transform="translate(179.48 38.92)"/><path class="cls-2" d="M154.33,284.55c-.59-.54-1.16-1.11-1.72-1.68,0,0-72.09,71.88-73.34,73a68.21,68.21,0,0,1-7.52,5.94A40.77,40.77,0,0,1,68,364a29.19,29.19,0,0,1-3.65,1.58,19.78,19.78,0,0,1-3.54.9,19.57,19.57,0,0,1-3.5.25,23.27,23.27,0,0,1-3.56-.41,27.42,27.42,0,0,1-3.7-1.08c-.32-.1-.63-.25-.95-.37s-.66-.26-.92-.4l-.84-.41a7.27,7.27,0,0,1-.83-.43c-.53-.33-1.1-.6-1.61-1l-.79-.53c-.26-.18-.5-.4-.76-.59A26.69,26.69,0,0,1,38,355.87a26.1,26.1,0,0,1-3.43-7l-.29-.91c-.09-.31-.14-.62-.22-.93s-.16-.62-.21-.93l-.15-.93a22.3,22.3,0,0,1-.25-3.78,23.88,23.88,0,0,1,1.25-7.47,25.1,25.1,0,0,1,9.12-12.13,28,28,0,0,1,14.77-5.24A23.33,23.33,0,0,1,73,320.45c.26.19.54.32.78.53l.75.6c.25.2.52.37.75.59l1.44,1.32,15.66,15.66a13.65,13.65,0,0,1,1.7-1.7l-17.23-17.1c-.26-.24-.55-.43-.82-.66l-.83-.65a10,10,0,0,0-.86-.58,25.71,25.71,0,0,0-15.81-4.3,30.3,30.3,0,0,0-16,5.69,27.51,27.51,0,0,0-10,13.31,26.33,26.33,0,0,0-1.38,8.21,26,26,0,0,0,.28,4.17l.16,1c.06.35.16.68.24,1s.15.69.24,1l.32,1a28.41,28.41,0,0,0,3.75,7.64,29.27,29.27,0,0,0,5.83,6.18c.28.21.54.45.83.65l.87.58a19.28,19.28,0,0,0,1.78,1.09,6.6,6.6,0,0,0,.91.48l.93.45c.3.16.67.29,1,.43s.68.3,1,.41a32,32,0,0,0,4.06,1.18,24.88,24.88,0,0,0,4,.45,20.84,20.84,0,0,0,3.94-.28,21.29,21.29,0,0,0,3.94-1,30.74,30.74,0,0,0,4-1.71,45.68,45.68,0,0,0,4-2.35,69,69,0,0,0,7.78-6.14c1.29-1.15,2.56-2.34,3.84-3.58S154.33,284.55,154.33,284.55Z" transform="translate(179.48 38.92)"/><path class="cls-2" d="M120.52,364l-1.14-1.19L114,357.32,112.24,359l6.5,6.58a23.55,23.55,0,0,1,2.53,28.08,22,22,0,0,1-2.24,3c-.2.24-.42.47-.64.7l-.49.52L13,502.84l1.7,1.7L120.14,399a10.27,10.27,0,0,0,.7-.78,23,23,0,0,0,2.47-3.35,25.91,25.91,0,0,0-2.79-31Z" transform="translate(179.48 38.92)"/><path class="cls-2" d="M291,118.3a44.91,44.91,0,0,0-4.45-5.9c-.39-.47-.83-.9-1.25-1.35l-.63-.66L266.39,92.12c-.19-.19-.25-.27-.38-.39l-.32-.35a7.2,7.2,0,0,1-.64-.71c-.43-.47-.79-1-1.18-1.47a25.81,25.81,0,0,1-2-3.21,23.56,23.56,0,0,1-2.18-14.71,25.18,25.18,0,0,1,.94-3.66,24.66,24.66,0,0,1,1.53-3.44A21.68,21.68,0,0,1,264.25,61c.37-.51.8-1,1.21-1.45L346-21.06l-1.7-1.7L263.68,58c-.45.53-.93,1-1.34,1.6A25.65,25.65,0,0,0,260.07,63a28.66,28.66,0,0,0-1.68,3.8,26.46,26.46,0,0,0-1,4,25.8,25.8,0,0,0,2.4,16.21,27.33,27.33,0,0,0,2.16,3.55c.43.55.84,1.11,1.31,1.62a8.65,8.65,0,0,0,.7.78l.36.38.4.42s19.68,19.73,20.06,20.18a44.08,44.08,0,0,1,4.21,5.58,41.25,41.25,0,0,1,3.26,6.21,44.53,44.53,0,0,1,2.23,6.63,44,44,0,0,1,1.13,13.9,43.36,43.36,0,0,1-10.75,25.36,46,46,0,0,1-5,4.86,46.82,46.82,0,0,1-5.75,4,43.46,43.46,0,0,1-51.9-6.11s-23.25-23.22-23.79-23.72a50.84,50.84,0,0,0-15.81-10.48,51.85,51.85,0,0,0-37.29-1.06,50.86,50.86,0,0,0-16.36,9.56,51.52,51.52,0,0,0-16.17,51.87,50.77,50.77,0,0,0,8,17.16c.94,1.28,1.92,2.53,3,3.72.51.62,1.07,1.19,1.62,1.77l84.51,84.46c.28.24.53.51.82.74l1.71,1.35c.29.23.6.41.9.61a29.65,29.65,0,0,0,16.23,5.2,33.8,33.8,0,0,0,17-4.22,32.29,32.29,0,0,0,12.41-12.07,30.37,30.37,0,0,0,3.17-8,30.87,30.87,0,0,0,.8-8.7,33,33,0,0,0-1.5-8.6,33.39,33.39,0,0,0-3.85-7.9,37.64,37.64,0,0,0-30.37-16.69,29.53,29.53,0,0,0-16.39,4.63,33.06,33.06,0,0,0-3.5,2.57l-1.61,1.49c-.25.21-.62.6-.94.91l-18.12,18.12a17,17,0,0,1,1.7,1.7s20-19.93,20.54-20.4a30.16,30.16,0,0,1,3.22-2.36,27.19,27.19,0,0,1,15.08-4.26,35.26,35.26,0,0,1,28.38,15.62,30.44,30.44,0,0,1,3.57,7.32,30.07,30.07,0,0,1,1.39,8,28.71,28.71,0,0,1-.74,8,27.73,27.73,0,0,1-2.92,7.36,29.83,29.83,0,0,1-11.49,11.15,31.27,31.27,0,0,1-15.74,3.93,27.3,27.3,0,0,1-14.94-4.79c-.27-.19-.56-.35-.82-.56l-1.59-1.25c-.26-.2-.5-.46-.75-.68l-1.13-1-83.26-83.31c-.53-.55-1.07-1.09-1.55-1.68-1-1.13-1.93-2.33-2.83-3.55A48.39,48.39,0,0,1,115.07,200,49.66,49.66,0,0,1,113.84,182a48.76,48.76,0,0,1,16.66-31.4,48.18,48.18,0,0,1,15.59-9.11,49.33,49.33,0,0,1,35.55,1,48.32,48.32,0,0,1,15.06,10c.51.47,1.22,1.19,1.87,1.84l21.94,21.9a45.94,45.94,0,0,0,54.77,6.44,48,48,0,0,0,6.07-4.22,47.36,47.36,0,0,0,5.29-5.12A45.84,45.84,0,0,0,298,146.51a46.39,46.39,0,0,0-1.2-14.66A45.81,45.81,0,0,0,291,118.3Z" transform="translate(179.48 38.92)"/><path class="cls-2" d="M143.38,362.91a46,46,0,0,0-8-12.38l-1.84-1.93-5.5-5.47-1.7,1.7,7.25,7.31a43.53,43.53,0,0,1,10,39.16,43.27,43.27,0,0,1-5.34,12.9,42.55,42.55,0,0,1-4.15,5.63c-.38.45-.77.88-1.17,1.3L27.14,517l1.7,1.7S135.58,411.88,136,411.41a44,44,0,0,0,4.38-6A45.34,45.34,0,0,0,146,391.85a46,46,0,0,0-2.61-28.94Z" transform="translate(179.48 38.92)"/><path class="cls-2" d="M166.75,297s-72.63,72.44-74.12,73.78a87.92,87.92,0,0,1-9.76,7.67,62.22,62.22,0,0,1-5.65,3.34,50.06,50.06,0,0,1-6.29,2.71,39.9,39.9,0,0,1-14.06,2.24,41.83,41.83,0,0,1-7.1-.8,47.83,47.83,0,0,1-6.66-1.93c-.55-.18-1-.41-1.58-.62s-1-.41-1.57-.67L38.38,382c-.53-.25-1.06-.51-1.56-.81-1-.6-2-1.15-3-1.83l-1.44-1c-.48-.33-.92-.71-1.38-1.06A46.28,46.28,0,0,1,15.5,355L15,353.29c-.15-.56-.27-1.13-.41-1.69s-.27-1.13-.38-1.71l-.28-1.73c-.21-1.15-.28-2.33-.38-3.5,0-.29,0-.58-.07-.87l0-2.6a43.52,43.52,0,0,1,8.84-26,46.68,46.68,0,0,1,9.83-9.62,47.79,47.79,0,0,1,25.5-9A44.28,44.28,0,0,1,71.43,298a42.85,42.85,0,0,1,12.73,5.82c.47.33,1,.62,1.44,1L87,305.88c.45.36.93.71,1.36,1.09l2.54,2.35L106.51,325l1.72-1.68L89.89,305.15c-.45-.41-1-.77-1.42-1.16L87,302.87c-.48-.39-1-.7-1.52-1.05a45.49,45.49,0,0,0-13.44-6.14,47.09,47.09,0,0,0-14.57-1.54,50.38,50.38,0,0,0-26.78,9.47,48.85,48.85,0,0,0-10.34,10.12A46.07,46.07,0,0,0,11,341.17l0,2.73c0,.3,0,.62.07.92.1,1.24.18,2.49.4,3.7l.3,1.83c.11.6.27,1.19.4,1.79s.27,1.2.44,1.79l.53,1.75A48.59,48.59,0,0,0,29.53,379.2c.48.37.95.77,1.45,1.11l1.52,1c1,.72,2.09,1.3,3.15,1.93.53.32,1.09.59,1.65.86L39,385c.57.28,1.1.47,1.65.71s1.08.46,1.65.65a49.46,49.46,0,0,0,7,2,44.63,44.63,0,0,0,7.52.86,42.24,42.24,0,0,0,14.91-2.38A51,51,0,0,0,78.33,384a64.38,64.38,0,0,0,5.87-3.48c1.86-1.23,3.6-2.53,5.26-3.85s3.26-2.67,4.77-4,3-2.73,4.41-4.1L168.5,298.7A21.42,21.42,0,0,1,166.75,297Z" transform="translate(179.48 38.92)"/><path class="cls-3" d="M-155.73,248.16l1.43,1.13c.24.19.5.34.75.51a24.51,24.51,0,0,0,13.43,4.3,28.45,28.45,0,0,0,14.32-3.59,26.92,26.92,0,0,0,10.4-10.09,25.16,25.16,0,0,0,2.63-6.6c.11-.59.24-1.18.36-1.77s.14-1.21.23-1.81a28.72,28.72,0,0,0,.07-3.71,27.32,27.32,0,0,0-1.25-7.19,28,28,0,0,0-3.24-6.65,32,32,0,0,0-11.35-10.37,31.74,31.74,0,0,0-14.72-4c-.61,0-1.23,0-1.84,0s-1.2.12-1.81.16-1.17.22-1.76.31-1.15.29-1.73.42a24.58,24.58,0,0,0-6.4,2.89,27.73,27.73,0,0,0-2.91,2.13c-.45.42-.9.84-1.36,1.25l-.17.16a2.43,2.43,0,0,0-.24.23l-18.59,18.56,23.07,23C-156.18,247.74-156,248-155.73,248.16Z" transform="translate(179.48 38.92)"/></svg>